<svg xmlns="http://www.w3.org/2000/svg" viewBox="0 0 1920 1080" width="1920" height="1080">
<defs>

</defs>
<rect width="1920" height="1080" fill="#080914"/><ellipse cx="960" cy="540" rx="150" ry="60" fill="none" stroke="#818cf8" stroke-width="1" stroke-opacity="0.25" transform="rotate(0 960 540)"/><ellipse cx="960" cy="540" rx="260" ry="100" fill="none" stroke="#818cf8" stroke-width="1" stroke-opacity="0.23" transform="rotate(18 960 540)"/><ellipse cx="960" cy="540" rx="370" ry="140" fill="none" stroke="#818cf8" stroke-width="1" stroke-opacity="0.22" transform="rotate(36 960 540)"/><ellipse cx="960" cy="540" rx="480" ry="180" fill="none" stroke="#818cf8" stroke-width="1" stroke-opacity="0.21" transform="rotate(54 960 540)"/><ellipse cx="960" cy="540" rx="590" ry="220" fill="none" stroke="#818cf8" stroke-width="1" stroke-opacity="0.19" transform="rotate(72 960 540)"/><ellipse cx="960" cy="540" rx="700" ry="260" fill="none" stroke="#818cf8" stroke-width="1" stroke-opacity="0.17" transform="rotate(90 960 540)"/><ellipse cx="960" cy="540" rx="810" ry="300" fill="none" stroke="#818cf8" stroke-width="1" stroke-opacity="0.16" transform="rotate(108 960 540)"/><ellipse cx="960" cy="540" rx="920" ry="340" fill="none" stroke="#818cf8" stroke-width="1" stroke-opacity="0.15" transform="rotate(126 960 540)"/><ellipse cx="960" cy="540" rx="1030" ry="380" fill="none" stroke="#818cf8" stroke-width="1" stroke-opacity="0.13" transform="rotate(144 960 540)"/><ellipse cx="960" cy="540" rx="1140" ry="420" fill="none" stroke="#818cf8" stroke-width="1" stroke-opacity="0.11" transform="rotate(162 960 540)"/>
</svg>