<svg xmlns="http://www.w3.org/2000/svg" viewBox="0 0 1920 1080" width="1920" height="1080">
<defs>

    <linearGradient id="goldSpiral" x1="0%" y1="0%" x2="100%" y2="100%">
        <stop offset="0%" stop-color="#fbbf24" stop-opacity="0.3"/>
        <stop offset="100%" stop-color="#b45309" stop-opacity="0.05"/>
    </linearGradient>
    
</defs>

    <rect width="1920" height="1080" fill="#0b0d10"/>
    <polyline points="965.0,540.0 965.1,540.4 965.2,540.9 965.2,541.4 965.2,541.9 965.2,542.4 965.1,542.9 965.0,543.5 964.8,544.0 964.5,544.5 964.2,545.0 963.9,545.5 963.5,546.0 963.0,546.5 962.5,546.9 962.0,547.3 961.3,547.6 960.7,547.9 960.0,548.2 959.3,548.4 958.5,548.5 957.7,548.6 956.9,548.6 956.0,548.5 955.2,548.4 954.3,548.1 953.4,547.8 952.6,547.4 951.7,546.9 950.9,546.4 950.1,545.7 949.4,545.0 948.7,544.1 948.0,543.2 947.5,542.2 947.0,541.1 946.5,540.0 946.2,538.8 946.0,537.5 945.9,536.2 945.9,534.9 946.0,533.5 946.3,532.1 946.6,530.6 947.2,529.2 947.8,527.8 948.6,526.4 949.6,525.1 950.6,523.8 951.9,522.6 953.2,521.4 954.7,520.4 956.4,519.4 958.1,518.6 960.0,517.9 962.0,517.4 964.0,517.0 966.2,516.8 968.4,516.8 970.7,517.0 973.0,517.5 975.3,518.1 977.7,518.9 980.0,520.0 982.3,521.3 984.5,522.9 986.6,524.6 988.6,526.7 990.5,528.9 992.2,531.4 993.8,534.0 995.1,536.9 996.2,540.0 997.1,543.2 997.7,546.6 998.0,550.2 998.0,553.8 997.7,557.6 997.0,561.4 996.0,565.2 994.6,569.0 992.8,572.8 990.6,576.5 988.1,580.1 985.2,583.6 981.9,586.9 978.2,590.0 974.2,592.8 969.8,595.4 965.0,597.6 960.0,599.4 954.7,600.8 949.1,601.8 943.3,602.3 937.3,602.3 931.2,601.8 925.0,600.7 918.7,599.0 912.4,596.7 906.2,593.8 900.1,590.3 894.1,586.1 888.4,581.3 883.0,575.9 878.0,569.9 873.3,563.2 869.2,556.0 865.5,548.3 862.5,540.0 860.2,531.3 858.6,522.1 857.8,512.6 857.8,502.8 858.7,492.7 860.5,482.5 863.2,472.2 867.0,461.9 871.7,451.7 877.5,441.7 884.4,432.0 892.2,422.6 901.1,413.7 911.0,405.4 921.9,397.8 933.7,391.0 946.4,385.0 960.0,380.1 974.3,376.3 989.3,373.6 1004.9,372.3 1021.0,372.3 1037.5,373.7 1054.3,376.7 1071.2,381.2 1088.1,387.4 1104.8,395.2 1121.2,404.7 1137.2,415.9 1152.6,428.8 1167.2,443.4 1180.8,459.6 1193.3,477.5 1204.5,496.9 1214.2,517.8" fill="none" stroke="url(#goldSpiral)" stroke-width="1.4" stroke-linecap="round"/>
    
</svg>