<svg xmlns="http://www.w3.org/2000/svg" viewBox="0 0 1920 1080" width="1920" height="1080">
<defs>

</defs>
<rect width="1920" height="1080" fill="#0c0608"/><line x1="750" y1="450" x2="750" y2="700" stroke="#dc2626" stroke-width="12"/><line x1="772" y1="450" x2="772" y2="700" stroke="#dc2626" stroke-width="12"/><line x1="794" y1="450" x2="794" y2="700" stroke="#dc2626" stroke-width="12"/><line x1="816" y1="450" x2="816" y2="700" stroke="#dc2626" stroke-width="12"/><line x1="838" y1="450" x2="838" y2="700" stroke="#dc2626" stroke-width="12"/><line x1="860" y1="450" x2="860" y2="700" stroke="#dc2626" stroke-width="12"/><line x1="882" y1="450" x2="882" y2="700" stroke="#dc2626" stroke-width="12"/><line x1="904" y1="450" x2="904" y2="700" stroke="#dc2626" stroke-width="12"/><line x1="926" y1="450" x2="926" y2="700" stroke="#dc2626" stroke-width="12"/><line x1="948" y1="450" x2="948" y2="700" stroke="#dc2626" stroke-width="12"/><line x1="970" y1="450" x2="970" y2="700" stroke="#dc2626" stroke-width="12"/><line x1="992" y1="450" x2="992" y2="700" stroke="#dc2626" stroke-width="12"/><line x1="1014" y1="450" x2="1014" y2="700" stroke="#dc2626" stroke-width="12"/><line x1="1036" y1="450" x2="1036" y2="700" stroke="#dc2626" stroke-width="12"/><line x1="1058" y1="450" x2="1058" y2="700" stroke="#dc2626" stroke-width="12"/><line x1="1080" y1="450" x2="1080" y2="700" stroke="#dc2626" stroke-width="12"/><line x1="1102" y1="450" x2="1102" y2="700" stroke="#dc2626" stroke-width="12"/><line x1="1124" y1="450" x2="1124" y2="700" stroke="#dc2626" stroke-width="12"/>
</svg>