<svg xmlns="http://www.w3.org/2000/svg" viewBox="0 0 1920 1080" width="1920" height="1080">
<defs>

</defs>
<rect width="1920" height="1080" fill="#0a0805"/><path d="M 820 780 L 820 320 Q 950 300, 1170 350 L 1170 780 Z" fill="none" stroke="#f59e0b" stroke-width="12"/><line x1="850" y1="350" x2="850" y2="400" stroke="#fef08a" stroke-width="1.5" stroke-opacity="0.6"/><line x1="868" y1="350" x2="868" y2="422" stroke="#fef08a" stroke-width="1.5" stroke-opacity="0.6"/><line x1="886" y1="350" x2="886" y2="444" stroke="#fef08a" stroke-width="1.5" stroke-opacity="0.6"/><line x1="904" y1="350" x2="904" y2="466" stroke="#fef08a" stroke-width="1.5" stroke-opacity="0.6"/><line x1="922" y1="350" x2="922" y2="488" stroke="#fef08a" stroke-width="1.5" stroke-opacity="0.6"/><line x1="940" y1="350" x2="940" y2="510" stroke="#fef08a" stroke-width="1.5" stroke-opacity="0.6"/><line x1="958" y1="350" x2="958" y2="532" stroke="#fef08a" stroke-width="1.5" stroke-opacity="0.6"/><line x1="976" y1="350" x2="976" y2="554" stroke="#fef08a" stroke-width="1.5" stroke-opacity="0.6"/><line x1="994" y1="350" x2="994" y2="576" stroke="#fef08a" stroke-width="1.5" stroke-opacity="0.6"/><line x1="1012" y1="350" x2="1012" y2="598" stroke="#fef08a" stroke-width="1.5" stroke-opacity="0.6"/><line x1="1030" y1="350" x2="1030" y2="620" stroke="#fef08a" stroke-width="1.5" stroke-opacity="0.6"/><line x1="1048" y1="350" x2="1048" y2="642" stroke="#fef08a" stroke-width="1.5" stroke-opacity="0.6"/><line x1="1066" y1="350" x2="1066" y2="664" stroke="#fef08a" stroke-width="1.5" stroke-opacity="0.6"/><line x1="1084" y1="350" x2="1084" y2="686" stroke="#fef08a" stroke-width="1.5" stroke-opacity="0.6"/><line x1="1102" y1="350" x2="1102" y2="708" stroke="#fef08a" stroke-width="1.5" stroke-opacity="0.6"/><line x1="1120" y1="350" x2="1120" y2="730" stroke="#fef08a" stroke-width="1.5" stroke-opacity="0.6"/><line x1="1138" y1="350" x2="1138" y2="752" stroke="#fef08a" stroke-width="1.5" stroke-opacity="0.6"/><line x1="1156" y1="350" x2="1156" y2="774" stroke="#fef08a" stroke-width="1.5" stroke-opacity="0.6"/>
</svg>